<svg width="23" height="27" viewBox="0 0 23 27" fill="none" xmlns="http://www.w3.org/2000/svg">
<path d="M1.97247 7.07736H4.82751C4.4981 8.6307 4.37137 10.2432 4.37137 11.7994C4.37137 12.262 4.74663 12.6373 5.2092 12.6373C5.67177 12.6373 6.04703 12.262 6.04703 11.7994C6.04703 10.2492 6.1778 8.62149 6.53906 7.07736H16.2954C16.6567 8.62149 16.7874 10.2492 16.7874 11.7994C16.7874 12.262 17.1627 12.6373 17.6253 12.6373C18.0878 12.6373 18.4631 12.262 18.4631 11.7994C18.4631 10.2432 18.3364 8.6307 18.007 7.07736H20.9865C21.2119 7.07736 21.3958 7.25543 21.4051 7.47858L22.9541 26.3581L22.9545 26.358C22.9734 26.5886 22.8018 26.7909 22.5712 26.8098C22.5595 26.8108 22.5479 26.8112 22.5363 26.8112H0.418925C0.187568 26.8112 0 26.6237 0 26.3923C0 26.3747 0.00109263 26.3573 0.00321612 26.3402L1.55207 7.46357L1.96936 7.49631L1.55184 7.46205C1.56988 7.24193 1.7551 7.07555 1.97248 7.07739L1.97247 7.07736Z" fill="#3D3025"/>
<path d="M4.79041 11.7994C4.79041 12.0308 4.97797 12.2184 5.20933 12.2184C5.44069 12.2184 5.62825 12.0308 5.62825 11.7994C5.62825 6.48396 7.16275 3.10522 9.12688 1.64663C9.85293 1.10747 10.6368 0.837871 11.4174 0.837871C12.1979 0.837871 12.9818 1.10747 13.7079 1.64665C15.672 3.1052 17.2065 6.4839 17.2065 11.7994C17.2065 12.0308 17.3941 12.2183 17.6254 12.2183C17.8568 12.2183 18.0443 12.0308 18.0443 11.7994C18.0443 6.18963 16.3605 2.57614 14.2053 0.975692C13.3295 0.325243 12.3751 0 11.4174 0C10.4597 0 9.50529 0.325223 8.6294 0.975671C6.47421 2.57616 4.79041 6.18968 4.79041 11.7994V11.7994Z" fill="#3D3025"/>
</svg>
