<svg width="20" height="20" viewBox="0 0 20 20" fill="none" xmlns="http://www.w3.org/2000/svg">
<path fill-rule="evenodd" clip-rule="evenodd" d="M5 5.00002C5.00009 4.03781 5.27782 3.09605 5.79987 2.28776C6.32191 1.47948 7.0661 0.83899 7.94313 0.443158C8.82016 0.0473268 9.79278 -0.0870347 10.7443 0.0561958C11.6958 0.199426 12.5857 0.614165 13.3074 1.25065C14.029 1.88713 14.5517 2.71831 14.8126 3.64447C15.0736 4.57062 15.0617 5.55241 14.7786 6.47201C14.4954 7.39161 13.9529 8.20997 13.2161 8.82889C12.4794 9.44781 11.5797 9.841 10.625 9.96128V16.875C10.625 17.0408 10.5592 17.1998 10.4419 17.317C10.3247 17.4342 10.1658 17.5 10 17.5C9.83424 17.5 9.67527 17.4342 9.55806 17.317C9.44085 17.1998 9.375 17.0408 9.375 16.875V9.96252C8.16621 9.81023 7.05461 9.22182 6.24902 8.30782C5.44343 7.39382 4.99928 6.21712 5 4.99878V5.00002ZM8.11625 15.7175C8.14336 15.881 8.10447 16.0485 8.00814 16.1832C7.9118 16.318 7.7659 16.409 7.6025 16.4363C6.7125 16.5838 6.0025 16.805 5.53375 17.0525C5.36155 17.1353 5.20506 17.2474 5.07125 17.3838C5.041 17.4167 5.01687 17.4548 5 17.4963V17.5L5.0025 17.51C5.00742 17.5246 5.01414 17.5384 5.0225 17.5513C5.07184 17.6236 5.13313 17.687 5.20375 17.7388C5.41 17.9013 5.7475 18.0763 6.22 18.2325C7.15875 18.545 8.495 18.75 10 18.75C11.505 18.75 12.8413 18.5463 13.78 18.2325C14.2525 18.075 14.59 17.9013 14.7962 17.7388C14.8673 17.6871 14.929 17.6237 14.9788 17.5513C14.9867 17.5383 14.993 17.5245 14.9975 17.51L15 17.5V17.495C14.9831 17.4536 14.959 17.4155 14.9288 17.3825C14.7949 17.2466 14.6384 17.1349 14.4662 17.0525C13.9963 16.805 13.2875 16.5838 12.3975 16.4363C12.3146 16.425 12.2348 16.3973 12.1628 16.3546C12.0908 16.312 12.0282 16.2553 11.9785 16.188C11.9288 16.1207 11.8932 16.0441 11.8737 15.9627C11.8541 15.8814 11.8512 15.7969 11.8649 15.7144C11.8786 15.6319 11.9088 15.5529 11.9536 15.4823C11.9984 15.4116 12.0569 15.3507 12.1257 15.3031C12.1945 15.2554 12.2721 15.2221 12.354 15.2051C12.4359 15.188 12.5204 15.1876 12.6025 15.2038C13.565 15.3625 14.4175 15.6138 15.0487 15.9463C15.625 16.25 16.25 16.75 16.25 17.5C16.25 18.0325 15.925 18.44 15.57 18.7213C15.2075 19.0063 14.72 19.2375 14.175 19.4188C13.0775 19.785 11.6013 20 10 20C8.39875 20 6.9225 19.785 5.825 19.4188C5.28 19.2375 4.7925 19.0063 4.43 18.7213C4.075 18.44 3.75 18.0325 3.75 17.5C3.75 16.7513 4.375 16.25 4.95125 15.9463C5.5825 15.6138 6.435 15.3625 7.3975 15.2038C7.56093 15.1767 7.72844 15.2156 7.86321 15.3119C7.99798 15.4082 8.08899 15.5541 8.11625 15.7175Z" fill="#3D3025"/>
</svg>
