<svg width="25" height="19" viewBox="0 0 25 19" fill="none" xmlns="http://www.w3.org/2000/svg">
<path d="M25 15.8332C25 16.3886 24.8458 16.9035 24.5989 17.3565L16.7054 8.40696L24.5133 1.48462C24.817 1.97305 25 2.5468 25 3.16681V15.8332ZM12.5 10.0319L23.3645 0.398996C22.9187 0.151673 22.4166 0 21.8751 0H3.12498C2.58274 0 2.08054 0.151673 1.6365 0.398996L12.5 10.0319ZM15.529 9.44915L13.0141 11.6803C12.867 11.8102 12.6839 11.875 12.5 11.875C12.3161 11.875 12.1329 11.8102 11.9858 11.6803L9.47042 9.44904L1.47704 18.5129C1.95616 18.8175 2.51767 19 3.12493 19H21.8751C22.4822 19 23.044 18.8175 23.523 18.5129L15.529 9.44915ZM0.486799 1.48457C0.183116 1.973 0 2.54675 0 3.16681V15.8333C0 16.3887 0.153438 16.9035 0.40132 17.3565L8.29392 8.40545L0.486799 1.48457Z" fill="#98887A"/>
</svg>
