<svg width="28" height="28" viewBox="0 0 28 28" fill="none" xmlns="http://www.w3.org/2000/svg">
<path d="M27.1322 23.8272L20.4999 18.1864C19.8143 17.5693 19.081 17.2861 18.4886 17.3134C20.0543 15.4796 21 13.1003 21 10.5C21 4.70099 16.299 0 10.5 0C4.70105 0 0 4.70099 0 10.5C0 16.299 4.70099 21 10.5 21C13.1003 21 15.4796 20.0543 17.3134 18.4886C17.2861 19.081 17.5693 19.8141 18.1864 20.4998L23.8272 27.1321C24.7931 28.2052 26.3708 28.2957 27.3331 27.3332C28.2956 26.3708 28.2053 24.7931 27.1322 23.8272ZM10.5 17.5C6.63403 17.5 3.5 14.3659 3.5 10.5C3.5 6.63403 6.63403 3.5 10.5 3.5C14.3659 3.5 17.5 6.63403 17.5 10.5C17.5 14.3659 14.366 17.5 10.5 17.5Z" fill="#98887A"/>
</svg>
