<svg aria-hidden="true" style="position: absolute; width: 0; height: 0; overflow: hidden;" version="1.1" xmlns="http://www.w3.org/2000/svg" xmlns:xlink="http://www.w3.org/1999/xlink">
<defs>
<symbol id="icon-tringolR" viewBox="0 0 21 32">
<path d="M19.579 17.392c0.897-0.712 0.897-2.073 0-2.785l-16.696-13.254c-1.165-0.925-2.883-0.095-2.883 1.392v26.509c0 1.488 1.718 2.317 2.883 1.392l16.696-13.254z"></path>
</symbol>
<symbol id="icon-tringolL" viewBox="0 0 21 32">
<path d="M1.754 14.608c-0.897 0.712-0.897 2.073 0 2.785l16.696 13.254c1.165 0.925 2.883 0.095 2.883-1.392v-26.509c0-1.488-1.718-2.317-2.883-1.392l-16.696 13.254z"></path>
</symbol>
<symbol id="icon-tringolB" viewBox="0 0 43 32">
<path d="M18.516 28.34c1.423 1.849 4.212 1.849 5.635 0l17.409-22.616c1.8-2.338 0.133-5.724-2.817-5.724h-34.819c-2.951 0-4.617 3.386-2.817 5.724l17.41 22.616z"></path>
</symbol>
<symbol id="icon-arrow-r" viewBox="0 0 118 32">
<path d="M116.671 17.471c0.812-0.812 0.812-2.129 0-2.942l-13.237-13.237c-0.812-0.812-2.129-0.812-2.941 0s-0.812 2.129 0 2.942l11.766 11.766-11.766 11.766c-0.812 0.812-0.812 2.129 0 2.942s2.129 0.812 2.941 0l13.237-13.237zM0 18.080h115.2v-4.16h-115.2v4.16z"></path>
</symbol>
<symbol id="icon-arrowRP" viewBox="0 0 72 32">
<path d="M70.748 17.414c0.781-0.781 0.781-2.047 0-2.829l-12.728-12.728c-0.781-0.781-2.047-0.781-2.828 0s-0.781 2.047 0 2.828l11.314 11.314-11.314 11.314c-0.781 0.781-0.781 2.047 0 2.828s2.047 0.781 2.828 0l12.728-12.728zM0 18h69.333v-4h-69.333v4z"></path>
</symbol>
<symbol id="icon-bag" viewBox="0 0 27 32">
<path d="M2.338 8.388h3.384c-0.39 1.841-0.541 3.752-0.541 5.597 0 0.548 0.445 0.993 0.993 0.993s0.993-0.445 0.993-0.993c0-1.837 0.155-3.766 0.583-5.596h11.563c0.428 1.83 0.583 3.759 0.583 5.596 0 0.548 0.445 0.993 0.993 0.993s0.993-0.445 0.993-0.993c0-1.844-0.15-3.755-0.541-5.596h3.531c0.267 0 0.485 0.211 0.496 0.476l1.836 22.376 0-0c0.022 0.273-0.181 0.513-0.454 0.535-0.014 0.001-0.028 0.002-0.041 0.002h-26.213c-0.274 0-0.496-0.222-0.496-0.496 0-0.021 0.001-0.041 0.004-0.062l1.836-22.372 0.495 0.039-0.495-0.041c0.021-0.261 0.241-0.458 0.499-0.456v-0z"></path>
<path d="M5.678 13.984c0 0.274 0.222 0.497 0.497 0.497s0.497-0.222 0.497-0.497c0-6.3 1.819-10.304 4.147-12.033 0.861-0.639 1.79-0.959 2.715-0.959s1.854 0.32 2.715 0.959c2.328 1.729 4.146 5.733 4.146 12.033 0 0.274 0.222 0.496 0.496 0.496s0.496-0.222 0.496-0.496c0-6.649-1.996-10.931-4.55-12.828-1.038-0.771-2.169-1.156-3.304-1.156s-2.266 0.385-3.304 1.156c-2.554 1.897-4.55 6.18-4.55 12.828v0z"></path>
</symbol>
<symbol id="icon-ellipse" viewBox="0 0 28 32">
<path stroke-linejoin="miter" stroke-linecap="butt" stroke-miterlimit="4" stroke-width="1.2549" d="M26.399 4.119c-2.35-2.056-5.258-3.369-8.354-3.773s-6.244 0.12-9.043 1.504-5.125 3.568-6.683 6.275c-1.558 2.706-2.279 5.814-2.071 8.93s1.335 6.1 3.24 8.575 4.5 4.33 7.458 5.33c2.958 1 6.147 1.101 9.162 0.289s5.722-2.5 7.779-4.85l-0.377-0.33c-1.991 2.276-4.612 3.91-7.532 4.697s-6.007 0.689-8.872-0.28c-2.865-0.968-5.378-2.765-7.221-5.161s-2.935-5.286-3.137-8.304c-0.202-3.017 0.496-6.026 2.005-8.647s3.761-4.735 6.471-6.076c2.71-1.341 5.758-1.848 8.756-1.457s5.814 1.662 8.090 3.653l0.33-0.377z"></path>
</symbol>
<symbol id="icon-geo" viewBox="0 0 32 32">
<path d="M8 8c0-1.54 0.444-3.046 1.28-4.34s2.026-2.318 3.429-2.951c1.403-0.633 2.959-0.848 4.482-0.619s2.946 0.893 4.101 1.911c1.155 1.018 1.991 2.348 2.408 3.83s0.399 3.053-0.054 4.524c-0.453 1.471-1.321 2.781-2.5 3.771s-2.618 1.619-4.146 1.812v11.062c0 0.265-0.105 0.52-0.293 0.707s-0.442 0.293-0.707 0.293c-0.265 0-0.52-0.105-0.707-0.293s-0.293-0.442-0.293-0.707v-11.060c-1.934-0.244-3.713-1.185-5.002-2.648s-2-3.345-1.998-5.294v0.002zM12.986 25.148c0.043 0.262-0.019 0.53-0.173 0.745s-0.388 0.361-0.649 0.405c-1.424 0.236-2.56 0.59-3.31 0.986-0.276 0.132-0.526 0.312-0.74 0.53-0.048 0.053-0.087 0.114-0.114 0.18v0.006l0.004 0.016c0.008 0.023 0.019 0.045 0.032 0.066 0.079 0.116 0.177 0.217 0.29 0.3 0.33 0.26 0.87 0.54 1.626 0.79 1.502 0.5 3.64 0.828 6.048 0.828s4.546-0.326 6.048-0.828c0.756-0.252 1.296-0.53 1.626-0.79 0.114-0.083 0.212-0.184 0.292-0.3 0.013-0.021 0.023-0.043 0.030-0.066l0.004-0.016v-0.008c-0.027-0.066-0.066-0.127-0.114-0.18-0.214-0.217-0.465-0.396-0.74-0.528-0.752-0.396-1.886-0.75-3.31-0.986-0.133-0.018-0.26-0.062-0.376-0.131s-0.215-0.159-0.295-0.267-0.136-0.23-0.168-0.36c-0.031-0.13-0.036-0.265-0.014-0.397s0.070-0.258 0.142-0.371c0.072-0.113 0.165-0.211 0.275-0.287s0.234-0.13 0.365-0.157c0.131-0.027 0.266-0.028 0.398-0.002 1.54 0.254 2.904 0.656 3.914 1.188 0.922 0.486 1.922 1.286 1.922 2.486 0 0.852-0.52 1.504-1.088 1.954-0.58 0.456-1.36 0.826-2.232 1.116-1.756 0.586-4.118 0.93-6.68 0.93s-4.924-0.344-6.68-0.93c-0.872-0.29-1.652-0.66-2.232-1.116-0.568-0.45-1.088-1.102-1.088-1.954 0-1.198 1-2 1.922-2.486 1.010-0.532 2.374-0.934 3.914-1.188 0.261-0.043 0.53 0.019 0.745 0.173s0.361 0.388 0.405 0.649z"></path>
</symbol>
<symbol id="icon-arrowLS" viewBox="0 0 72 32">
<path d="M1.252 17.414c-0.781-0.781-0.781-2.047 0-2.829l12.728-12.728c0.781-0.781 2.047-0.781 2.828 0s0.781 2.047 0 2.828l-11.314 11.314 11.314 11.314c0.781 0.781 0.781 2.047 0 2.828s-2.047 0.781-2.828 0l-12.728-12.728zM72 18h-69.333v-4h69.333v4z"></path>
</symbol>
<symbol id="icon-mail" viewBox="0 0 32 32">
<path d="M32 24.107c0 0.711-0.197 1.37-0.513 1.95l-10.104-11.455 9.994-8.861c0.389 0.625 0.623 1.36 0.623 2.153v16.213zM16 16.681l13.907-12.33c-0.571-0.317-1.213-0.511-1.906-0.511h-24c-0.694 0-1.337 0.194-1.905 0.511l13.905 12.33zM19.877 15.935l-3.219 2.856c-0.188 0.166-0.423 0.249-0.658 0.249s-0.47-0.083-0.658-0.249l-3.22-2.856-10.232 11.602c0.613 0.39 1.332 0.623 2.109 0.623h24c0.777 0 1.496-0.234 2.109-0.623l-10.232-11.602zM0.623 5.74c-0.389 0.625-0.623 1.36-0.623 2.153v16.213c0 0.711 0.196 1.37 0.514 1.95l10.103-11.457-9.993-8.859z"></path>
</symbol>
<symbol id="icon-mail-mini" viewBox="0 0 32 32">
<path d="M32 24.107c0 0.711-0.197 1.37-0.513 1.95l-10.104-11.455 9.994-8.861c0.389 0.625 0.623 1.36 0.623 2.153v16.213zM16 16.681l13.907-12.33c-0.571-0.317-1.213-0.511-1.906-0.511h-24c-0.694 0-1.337 0.194-1.905 0.511l13.905 12.33zM19.877 15.935l-3.219 2.856c-0.188 0.166-0.423 0.249-0.658 0.249s-0.47-0.083-0.658-0.249l-3.22-2.856-10.232 11.602c0.613 0.39 1.332 0.623 2.109 0.623h24c0.777 0 1.496-0.234 2.109-0.623l-10.232-11.602zM0.623 5.74c-0.389 0.625-0.623 1.36-0.623 2.153v16.213c0 0.711 0.196 1.37 0.514 1.95l10.103-11.457-9.993-8.859z"></path>
</symbol>
<symbol id="icon-phone" viewBox="0 0 32 32">
<path d="M31.856 25.507l-0.159-0.48c-0.377-1.121-1.614-2.291-2.75-2.599l-4.204-1.149c-1.14-0.31-2.767 0.107-3.601 0.941l-1.522 1.521c-5.53-1.494-9.866-5.83-11.358-11.359l1.522-1.522c0.834-0.834 1.251-2.458 0.941-3.598l-1.146-4.206c-0.31-1.138-1.482-2.374-2.601-2.748l-0.48-0.161c-1.121-0.373-2.72 0.004-3.554 0.838l-2.276 2.278c-0.407 0.404-0.666 1.561-0.666 1.566-0.080 7.226 2.754 14.188 7.865 19.3 5.099 5.099 12.035 7.928 19.24 7.868 0.038 0 1.228-0.256 1.635-0.66l2.276-2.276c0.834-0.834 1.211-2.433 0.838-3.554z"></path>
</symbol>
<symbol id="icon-plus" viewBox="0 0 32 32">
<path stroke-linejoin="round" stroke-linecap="butt" stroke-miterlimit="4" stroke-width="2.4" d="M16 8.296l0.045 5.279c0.011 1.309 1.070 2.368 2.379 2.379l5.279 0.045-5.279 0.045c-1.309 0.011-2.368 1.070-2.379 2.379l-0.045 5.279-0.045-5.279c-0.011-1.309-1.070-2.368-2.379-2.379l-5.279-0.045 5.279-0.045c1.309-0.011 2.368-1.070 2.379-2.379l0.045-5.279z"></path>
<path stroke-linejoin="miter" stroke-linecap="butt" stroke-miterlimit="4" stroke-width="1.6" d="M31.2 16c0 8.395-6.805 15.2-15.2 15.2s-15.2-6.805-15.2-15.2c0-8.395 6.805-15.2 15.2-15.2s15.2 6.805 15.2 15.2z"></path>
</symbol>
<symbol id="icon-serch" viewBox="0 0 32 32">
<path d="M31.008 27.231l-7.58-6.447c-0.784-0.705-1.622-1.029-2.299-0.998 1.789-2.096 2.87-4.815 2.87-7.787 0-6.627-5.373-12-12-12s-12 5.373-12 12 5.373 12 12 12c2.972 0 5.691-1.081 7.787-2.87-0.031 0.677 0.292 1.515 0.998 2.299l6.447 7.58c1.104 1.226 2.907 1.33 4.007 0.23s0.997-2.903-0.23-4.007zM12 20c-4.418 0-8-3.582-8-8s3.582-8 8-8c4.418 0 8 3.582 8 8s-3.582 8-8 8z"></path>
</symbol>
<symbol id="icon-users" viewBox="0 0 29 32">
<path d="M23.667 7.697c0-0.012 0-0.024 0-0.032 0-0.561-0.063-1.1-0.175-1.627-0.746-3.452-3.819-6.038-7.491-6.038-3.702 0-6.793 2.621-7.511 6.113-0.098 0.483-0.152 0.986-0.154 1.5 0 0.017-0.003 0.035-0.003 0.052 0 3.885 2.894 7.089 6.641 7.591 0.337 0.044 0.677 0.076 1.027 0.076 0.307 0 0.605-0.020 0.901-0.057 3.797-0.448 6.747-3.664 6.765-7.577z"></path>
<path d="M23.921 18.794c-0.811-0.696-1.716-1.282-2.686-1.75-0.37-0.179-0.744-0.341-1.134-0.483l-0.99 1.324-3.114 4.145-1.023-1.363-3.076-4.106c-0.407 0.15-0.805 0.324-1.193 0.512-0.97 0.471-1.87 1.061-2.682 1.765-0.448 0.387-0.868 0.811-1.256 1.26-1.91 2.196-3.076 5.079-3.076 8.244v2.665h24.615v-2.665c0-3.191-1.183-6.091-3.122-8.302-0.39-0.444-0.812-0.86-1.264-1.247z"></path>
</symbol>
<symbol id="icon-heart" viewBox="0 0 32 32">
<path fill="#e8e8e8" style="fill: var(--color1, #e8e8e8)" d="M32 16c0 8.837-7.163 16-16 16s-16-7.163-16-16c0-8.837 7.163-16 16-16s16 7.163 16 16z"></path>
<path  d="M20.288 10.857c-2.714 0-3.711 3.245-3.711 3.245s-0.984-3.245-3.718-3.245c-2.054 0-4.397 1.628-3.531 5.328 0.866 3.701 7.224 8.292 7.224 8.292s0.032-0.012 0.032-0.033c0 0.020 0.021 0.031 0.021 0.031s6.346-4.589 7.211-8.289c0.867-3.701-1.474-5.329-3.528-5.329z"></path>
</symbol>
<symbol id="icon-bagg" viewBox="0 0 32 32">
<path fill="#e8e8e8" style="fill: var(--color1, #e8e8e8)" d="M32 16c0 8.837-7.163 16-16 16s-16-7.163-16-16c0-8.837 7.163-16 16-16s16 7.163 16 16z"></path>
<path  d="M10.841 12.044h1.631c-0.188 0.888-0.261 1.809-0.261 2.698 0 0.264 0.214 0.479 0.479 0.479s0.479-0.214 0.479-0.479c0-0.886 0.075-1.816 0.281-2.698h5.575c0.206 0.882 0.281 1.812 0.281 2.698 0 0.264 0.214 0.479 0.479 0.479s0.479-0.214 0.479-0.479c0-0.889-0.072-1.811-0.261-2.698h1.703c0.129 0 0.234 0.102 0.239 0.229l0.885 10.788h0c0.011 0.132-0.087 0.247-0.219 0.258-0.007 0-0.013 0.001-0.020 0.001h-12.639c-0.132 0-0.239-0.107-0.239-0.239 0-0.010 0.001-0.020 0.002-0.030l0.885-10.787 0.238 0.019-0.239-0.020c0.010-0.126 0.116-0.221 0.24-0.22v0z"></path>
<path  d="M12.452 14.742c0 0.132 0.107 0.239 0.239 0.239s0.239-0.107 0.239-0.239c0-3.037 0.877-4.968 1.999-5.802 0.415-0.308 0.863-0.462 1.309-0.462s0.894 0.154 1.309 0.462c1.122 0.833 1.999 2.764 1.999 5.802 0 0.132 0.107 0.239 0.239 0.239s0.239-0.107 0.239-0.239c0-3.206-0.962-5.27-2.194-6.185-0.5-0.372-1.046-0.558-1.593-0.558s-1.093 0.186-1.593 0.558c-1.232 0.915-2.194 2.979-2.194 6.185v0z"></path>
</symbol>
<symbol id="icon-scales" viewBox="0 0 32 32">
<path fill="#e8e8e8" style="fill: var(--color1, #e8e8e8)" d="M32 16c0 8.837-7.163 16-16 16s-16-7.163-16-16c0-8.837 7.163-16 16-16s16 7.163 16 16z"></path>
<path  d="M26.331 19.959c-0.061 0.027-0.125 0.058-0.19 0.083l-2.699-7.521 0.581-0.049-0.002-0.463-0.794-0.061-0.046-0.041c-0.023-0.020-0.051-0.036-0.080-0.046l-0.105-0.024c-0.037 0-0.073 0.008-0.094 0.019l-0.060 0.004-0.040 0.055-5.774-0.468 0.002-0.118c0.001-0.914-0.054-3.898-0.745-3.898s-0.744 2.985-0.744 3.898l0.002 0.128-5.767 0.468-0.016-0.015c-0.023-0.021-0.051-0.035-0.080-0.046l-0.105-0.024c-0.031 0-0.061 0.007-0.090 0.019l-0.059 0.004-0.061 0.076-0.702 0.076-0.001 0.462 0.472 0.040-2.703 7.532c-0.065-0.027-0.128-0.055-0.19-0.084l-0.527-0.261 0.26 0.576c0.539 1.201 1.987 2.005 3.601 2.005s3.061-0.804 3.603-2.004l0.26-0.577-0.529 0.258c-0.061 0.031-0.124 0.058-0.19 0.085l-2.675-7.456 5.559 0.452c0.166 2.187 0.539 2.187 0.683 2.187s0.518 0 0.682-2.177l5.558-0.452-2.674 7.447c-0.065-0.026-0.128-0.056-0.19-0.085l-0.528-0.258 0.26 0.577c0.539 1.2 1.987 2.005 3.603 2.005 1.613 0 3.059-0.805 3.602-2.006l0.259-0.576-0.526 0.256zM12.118 20.282c-1.612 0.563-3.474 0.563-5.085 0l2.541-7.080 2.544 7.080zM20.455 20.282l2.541-7.080 2.54 7.080c-1.608 0.565-3.47 0.565-5.081 0z"></path>
</symbol>
</defs>
</svg>
