<svg width="45" height="51" viewBox="0 0 45 51" fill="none" xmlns="http://www.w3.org/2000/svg">
<mask id="path-1-inside-1_73_586" fill="white">
<path d="M42.0732 6.56417C38.3272 3.28716 33.6936 1.19456 28.7582 0.550995C23.8229 -0.0925679 18.8076 0.741811 14.3465 2.94862C9.88541 5.15543 6.17888 8.63555 3.69565 12.9489C1.21241 17.2623 0.0639942 22.2151 0.395631 27.1811C0.727263 32.1472 2.52405 36.9033 5.55878 40.8482C8.5935 44.7931 12.7299 47.7494 17.4448 49.3435C22.1597 50.9375 27.2414 51.0976 32.0474 49.8035C36.8533 48.5094 41.1675 45.8193 44.4445 42.0732L43.8441 41.548C40.671 45.1752 36.4935 47.7801 31.8399 49.0332C27.1864 50.2862 22.2657 50.1312 17.7003 48.5877C13.1348 47.0442 9.12961 44.1816 6.1911 40.3618C3.25258 36.542 1.51276 31.9366 1.19164 27.128C0.870517 22.3194 1.98252 17.5235 4.38703 13.3469C6.79155 9.17033 10.3806 5.80054 14.7002 3.66369C19.0199 1.52685 23.8762 0.718918 28.6551 1.34208C33.4339 1.96524 37.9207 3.9915 41.5479 7.16462L42.0732 6.56417Z"/>
</mask>
<path d="M42.0732 6.56417C38.3272 3.28716 33.6936 1.19456 28.7582 0.550995C23.8229 -0.0925679 18.8076 0.741811 14.3465 2.94862C9.88541 5.15543 6.17888 8.63555 3.69565 12.9489C1.21241 17.2623 0.0639942 22.2151 0.395631 27.1811C0.727263 32.1472 2.52405 36.9033 5.55878 40.8482C8.5935 44.7931 12.7299 47.7494 17.4448 49.3435C22.1597 50.9375 27.2414 51.0976 32.0474 49.8035C36.8533 48.5094 41.1675 45.8193 44.4445 42.0732L43.8441 41.548C40.671 45.1752 36.4935 47.7801 31.8399 49.0332C27.1864 50.2862 22.2657 50.1312 17.7003 48.5877C13.1348 47.0442 9.12961 44.1816 6.1911 40.3618C3.25258 36.542 1.51276 31.9366 1.19164 27.128C0.870517 22.3194 1.98252 17.5235 4.38703 13.3469C6.79155 9.17033 10.3806 5.80054 14.7002 3.66369C19.0199 1.52685 23.8762 0.718918 28.6551 1.34208C33.4339 1.96524 37.9207 3.9915 41.5479 7.16462L42.0732 6.56417Z" stroke="#98887A" stroke-width="2" mask="url(#path-1-inside-1_73_586)"/>
</svg>
