<svg width="15" height="15" viewBox="0 0 15 15" fill="none" xmlns="http://www.w3.org/2000/svg">
<path d="M14.9325 11.9563L14.8579 11.7313C14.681 11.2057 14.1014 10.6576 13.569 10.5132L11.5983 9.97481C11.0639 9.82942 10.3015 10.0249 9.91054 10.4159L9.19732 11.1291C6.6053 10.4287 4.57276 8.39611 3.8733 5.8046L4.58656 5.09135C4.97757 4.70034 5.17304 3.93902 5.02764 3.4046L4.49027 1.43295C4.34488 0.899509 3.79572 0.319919 3.27114 0.145039L3.04618 0.0694036C2.5206 -0.105476 1.77104 0.071384 1.38006 0.462357L0.313179 1.53022C0.122581 1.71981 0.000765536 2.26208 0.000765536 2.26406C-0.0365493 5.65132 1.29163 8.91478 3.68764 11.3108C6.07777 13.701 9.32901 15.0272 12.7064 14.9987C12.7241 14.9987 13.2821 14.8788 13.4727 14.6892L14.5396 13.6223C14.9305 13.2314 15.1074 12.4819 14.9325 11.9563Z" fill="#3D3025"/>
</svg>
