<svg width="20" height="26" viewBox="0 0 20 26" fill="none" xmlns="http://www.w3.org/2000/svg">
<path d="M16.2297 6.25388C16.2297 6.24427 16.2297 6.23467 16.2297 6.22781C16.2297 5.77218 16.1782 5.3344 16.0876 4.90622C15.4817 2.1011 12.9847 0 10.0012 0C6.99296 0 4.48153 2.12993 3.89827 4.9666C3.81866 5.3591 3.77476 5.76807 3.77337 6.18527C3.77337 6.19898 3.77063 6.21408 3.77063 6.22781C3.77063 9.38425 6.12219 11.9877 9.16679 12.3953C9.44058 12.4309 9.71711 12.457 10.0012 12.457C10.251 12.457 10.4925 12.4405 10.7333 12.4104C13.8184 12.0466 16.2153 9.43367 16.2297 6.25388Z" fill="#3D3025"/>
<path d="M16.4361 15.2703C15.7768 14.7049 15.0418 14.2287 14.2534 13.8486C13.9528 13.7031 13.6489 13.5713 13.3319 13.4561L12.5277 14.532L10.7333 16.9213L9.99769 17.8998L9.16674 16.7923L7.49657 14.5636L6.66765 13.4561C6.3369 13.5782 6.01372 13.7196 5.69875 13.8719C4.91033 14.2548 4.17955 14.7337 3.51943 15.306C3.15576 15.6203 2.81405 15.9648 2.49909 16.3298C0.947612 18.1139 0 20.4565 0 23.0283V25.1939H19.9995V23.0283C19.9995 20.4359 19.0382 18.0796 17.4627 16.2832C17.1456 15.9222 16.8026 15.5846 16.4361 15.2703Z" fill="#3D3025"/>
</svg>
